<!DOCTYPE svg PUBLIC "-//W3C//DTD SVG 1.1//EN" "http://www.w3.org/Graphics/SVG/1.1/DTD/svg11.dtd">
<!-- Uploaded to: SVG Repo, www.svgrepo.com, Transformed by: SVG Repo Mixer Tools -->
<svg fill="#000000" width="800px" height="800px" viewBox="0 0 24 24" id="delete-user-5" data-name="Flat Color" xmlns="http://www.w3.org/2000/svg" class="icon flat-color">
<g id="SVGRepo_bgCarrier" stroke-width="0"/>
<g id="SVGRepo_tracerCarrier" stroke-linecap="round" stroke-linejoin="round"/>
<g id="SVGRepo_iconCarrier">
<path id="secondary" d="M20.91,16.5l.8-.79a1,1,0,0,0-1.42-1.42l-.79.8-.79-.8a1,1,0,0,0-1.42,1.42l.8.79-.8.79a1,1,0,0,0,0,1.42,1,1,0,0,0,1.42,0l.79-.8.79.8a1,1,0,0,0,1.42,0,1,1,0,0,0,0-1.42Z" style="fill: #c40e0e;"/>
<path id="primary" d="M14.5,16.5a4.49,4.49,0,0,1,2.18-3.84,5.69,5.69,0,0,0-1.36-.51,6,6,0,1,0-8.64,0A6,6,0,0,0,2,18v1a1,1,0,0,0,.29.71C2.53,19.94,4.77,22,11,22a17.11,17.11,0,0,0,6.85-1.17A4.49,4.49,0,0,1,14.5,16.5Z" style="fill: #C9D1D9;"/>
</g>
</svg>